<svg xmlns="http://www.w3.org/2000/svg" xmlns:xlink="http://www.w3.org/1999/xlink" viewBox="0,0,256,256" width="50px" height="50px" fill-rule="nonzero" fill="#ffffff"><g fill="#ffffff" fill-rule="nonzero" stroke="none" stroke-width="1" stroke-linecap="butt" stroke-linejoin="miter" stroke-miterlimit="10" stroke-dasharray="" stroke-dashoffset="0" font-family="none" font-weight="none" font-size="none" text-anchor="none" style="mix-blend-mode: normal"><g transform="scale(5.12,5.12)"><path d="M5,7c-2.75,0 -5,2.25 -5,5v26c0,2.75 2.25,5 5,5h40c2.75,0 5,-2.25 5,-5v-26c0,-2.75 -2.25,-5 -5,-5zM5,9h40c1.66797,0 3,1.33203 3,3v26c0,1.66797 -1.33203,3 -3,3h-40c-1.66797,0 -3,-1.33203 -3,-3v-26c0,-1.66797 1.33203,-3 3,-3zM17,13c-6.61719,0 -12,5.38281 -12,12c0,6.61719 5.38281,12 12,12c3.07813,0 5.875,-1.18359 8,-3.09375c2.125,1.91016 4.92578,3.09375 8,3.09375c6.61719,0 12,-5.38281 12,-12c0,-6.61719 -5.38281,-12 -12,-12c-3.07422,0 -5.875,1.18359 -8,3.09375c-2.125,-1.91016 -4.92187,-3.09375 -8,-3.09375zM17,15c0.78516,0 1.55078,0.10938 2.28125,0.28125c-0.17969,0.17969 -0.28125,0.44141 -0.28125,0.71875c0,0.55078 0.44922,1 1,1c0.55078,0 1,-0.44922 1,-1c0,-0.05859 -0.02344,-0.10156 -0.03125,-0.15625c1.08984,0.47656 2.08984,1.125 2.9375,1.9375c0.07813,0.39453 0.38672,0.70313 0.78125,0.78125c0.62109,0.74609 1.11719,1.58984 1.5,2.5c-0.06641,-0.01562 -0.11719,-0.0625 -0.1875,-0.0625c-0.55078,0 -1,0.44922 -1,1c0,0.55078 0.44922,1 1,1c0.27734,0 0.53906,-0.10156 0.71875,-0.28125c0.16797,0.73828 0.28125,1.49219 0.28125,2.28125c0,0.78906 -0.10937,1.54297 -0.28125,2.28125c-0.17969,-0.17969 -0.44141,-0.28125 -0.71875,-0.28125c-0.55078,0 -1,0.44922 -1,1c0,0.55078 0.44922,1 1,1c0.06641,0 0.125,-0.01953 0.1875,-0.03125c-0.39062,0.90234 -0.91016,1.72656 -1.53125,2.46875c-0.38281,0.08984 -0.67578,0.39453 -0.75,0.78125c-0.85937,0.82422 -1.85547,1.49219 -2.96875,1.96875c0.01563,-0.06641 0.0625,-0.11719 0.0625,-0.1875c0,-0.55078 -0.44922,-1 -1,-1c-0.55078,0 -1,0.44922 -1,1c0,0.29297 0.11328,0.56641 0.3125,0.75c-0.74219,0.17578 -1.51953,0.25 -2.3125,0.25c-0.79297,0 -1.57031,-0.07422 -2.3125,-0.25c0.19922,-0.18359 0.3125,-0.45703 0.3125,-0.75c0,-0.55078 -0.44922,-1 -1,-1c-0.55078,0 -1,0.44922 -1,1c0,0.07031 0.04688,0.12109 0.0625,0.1875c-2.36328,-1.00781 -4.24219,-2.88672 -5.25,-5.25c0.06641,0.01563 0.11719,0.0625 0.1875,0.0625c0.55078,0 1,-0.44922 1,-1c0,-0.55078 -0.44922,-1 -1,-1c-0.29297,0 -0.56641,0.11328 -0.75,0.3125c-0.17578,-0.74219 -0.25,-1.51953 -0.25,-2.3125c0,-0.79297 0.07422,-1.57031 0.25,-2.3125c0.18359,0.19922 0.45703,0.3125 0.75,0.3125c0.55078,0 1,-0.44922 1,-1c0,-0.55078 -0.44922,-1 -1,-1c-0.07031,0 -0.12109,0.04688 -0.1875,0.0625c1.00781,-2.36328 2.88672,-4.24219 5.25,-5.25c-0.01562,0.06641 -0.0625,0.11719 -0.0625,0.1875c0,0.55078 0.44922,1 1,1c0.55078,0 1,-0.44922 1,-1c0,-0.29297 -0.11328,-0.56641 -0.3125,-0.75c0.74219,-0.17578 1.51953,-0.25 2.3125,-0.25zM33,15c5.53516,0 10,4.46484 10,10c0,5.53516 -4.46484,10 -10,10c-2.55469,0 -4.89062,-0.93359 -6.65625,-2.5c1.65234,-2.05859 2.65625,-4.66406 2.65625,-7.5c0,-2.83594 -1.00391,-5.44141 -2.65625,-7.5c1.76563,-1.56641 4.10156,-2.5 6.65625,-2.5zM11,18c-0.55078,0 -1,0.44922 -1,1c0,0.55078 0.44922,1 1,1c0.55078,0 1,-0.44922 1,-1c0,-0.55078 -0.44922,-1 -1,-1zM17,18c-0.55078,0 -1,0.44922 -1,1c0,0.55078 0.44922,1 1,1c0.55078,0 1,-0.44922 1,-1c0,-0.55078 -0.44922,-1 -1,-1zM23,18c-0.55078,0 -1,0.44922 -1,1c0,0.55078 0.44922,1 1,1c0.55078,0 1,-0.44922 1,-1c0,-0.55078 -0.44922,-1 -1,-1zM14,21c-0.55078,0 -1,0.44922 -1,1c0,0.55078 0.44922,1 1,1c0.55078,0 1,-0.44922 1,-1c0,-0.55078 -0.44922,-1 -1,-1zM20,21c-0.55078,0 -1,0.44922 -1,1c0,0.55078 0.44922,1 1,1c0.55078,0 1,-0.44922 1,-1c0,-0.55078 -0.44922,-1 -1,-1zM11,24c-0.55078,0 -1,0.44922 -1,1c0,0.55078 0.44922,1 1,1c0.55078,0 1,-0.44922 1,-1c0,-0.55078 -0.44922,-1 -1,-1zM17,24c-0.55078,0 -1,0.44922 -1,1c0,0.55078 0.44922,1 1,1c0.55078,0 1,-0.44922 1,-1c0,-0.55078 -0.44922,-1 -1,-1zM23,24c-0.55078,0 -1,0.44922 -1,1c0,0.55078 0.44922,1 1,1c0.55078,0 1,-0.44922 1,-1c0,-0.55078 -0.44922,-1 -1,-1zM14,27c-0.55078,0 -1,0.44922 -1,1c0,0.55078 0.44922,1 1,1c0.55078,0 1,-0.44922 1,-1c0,-0.55078 -0.44922,-1 -1,-1zM20,27c-0.55078,0 -1,0.44922 -1,1c0,0.55078 0.44922,1 1,1c0.55078,0 1,-0.44922 1,-1c0,-0.55078 -0.44922,-1 -1,-1zM11,30c-0.55078,0 -1,0.44922 -1,1c0,0.55078 0.44922,1 1,1c0.55078,0 1,-0.44922 1,-1c0,-0.55078 -0.44922,-1 -1,-1zM17,30c-0.55078,0 -1,0.44922 -1,1c0,0.55078 0.44922,1 1,1c0.55078,0 1,-0.44922 1,-1c0,-0.55078 -0.44922,-1 -1,-1zM23,30c-0.55078,0 -1,0.44922 -1,1c0,0.55078 0.44922,1 1,1c0.55078,0 1,-0.44922 1,-1c0,-0.55078 -0.44922,-1 -1,-1z"></path></g></g></svg>